<svg width="56" height="36" viewBox="0 0 56 36" fill="none" xmlns="http://www.w3.org/2000/svg">
<g clip-path="url(#clip0)">
<path d="M22.2118 35.9965C20.2699 35.9965 18.3522 35.4894 16.6622 34.531C16.3079 34.3304 16.0813 33.9441 16.0714 33.5258C16.0615 33.1042 16.2705 32.7064 16.6182 32.4865C19.5008 30.6597 21.2216 27.4824 21.2216 23.9872V13.1426C21.2216 9.86732 22.4682 6.78693 24.7314 4.46894C26.9528 2.19426 29.8739 0.960054 32.9469 0.997661C34.836 1.01931 36.7042 1.52417 38.3513 2.45751C38.7089 2.66037 38.9377 3.04784 38.9476 3.4695C38.9575 3.89116 38.7474 4.29116 38.3997 4.51111C35.5204 6.33792 33.8018 9.5129 33.8018 13.0036V23.9872C33.8029 30.6095 28.6031 35.9965 22.2118 35.9965ZM18.8891 33.3355C19.9431 33.7412 21.0544 33.9452 22.2085 33.9452C27.5117 33.9452 31.8225 29.4779 31.8225 23.9872V13.0036C31.8225 9.31802 33.4112 5.92538 36.1354 3.65867C35.1155 3.26664 34.0394 3.06265 32.9249 3.04898C32.8886 3.04898 32.8523 3.04898 32.816 3.04898C30.3118 3.04898 27.9397 4.06894 26.1232 5.9288C24.2385 7.85817 23.201 10.4212 23.201 13.1437V23.9883C23.2021 27.675 21.6133 31.0688 18.8891 33.3355Z" fill="white"/>
<path d="M55.0122 14.0281H42.4309V13.0024C42.4309 9.51176 40.6386 6.25131 37.7439 4.45641L37.6163 4.38119C36.1651 3.50938 34.5037 3.04784 32.8126 3.04784V0.996521H43.4179C49.8114 0.996521 55.0122 6.38122 55.0122 12.999V14.0281ZM44.3685 11.9768H52.9812C52.486 6.96813 48.3854 3.04784 43.4179 3.04784H39.2941C42.1955 5.0775 44.067 8.37784 44.3685 11.9768Z" fill="white"/>
<path d="M43.4179 35.9965L32.8126 35.9931V33.9418C34.5081 33.9418 36.1684 33.4814 37.6163 32.6119C40.5869 30.8375 42.4309 27.5348 42.4309 23.9906V22.965L43.4212 22.9615H55.0122V23.9906C55.0122 30.6107 49.8114 35.9965 43.4179 35.9965ZM39.293 33.9441L43.4179 33.9452C48.3854 33.9452 52.486 30.0226 52.9812 25.0129H44.3685C44.0681 28.6175 42.1955 31.9167 39.293 33.9441Z" fill="white"/>
<path d="M22.2085 35.9965H11.6033C5.21195 35.9965 0.012207 30.6107 0.012207 23.9906V22.965L1.00242 22.9615H12.5935V23.9872C12.5935 27.4836 14.3825 30.7417 17.2717 32.5309L17.4081 32.6119C18.8594 33.4848 20.5196 33.9452 22.2074 33.9452V35.9965H22.2085ZM2.04325 25.0129C2.54056 30.0249 6.63786 33.9452 11.6033 33.9452H15.7292C12.8267 31.919 10.9552 28.6175 10.6548 25.0129H2.04325Z" fill="white"/>
<path d="M43.4178 22.9615H38.1135V25.0129H43.4178V22.9615Z" fill="white"/>
</g>
<defs>
<clipPath id="clip0">
<rect width="55" height="35" fill="white" transform="translate(0.012207 0.996521)"/>
</clipPath>
</defs>
</svg>
